<?xml version="1.0" encoding="utf-8"?>
<!-- Generator: Adobe Illustrator 28.2.0, SVG Export Plug-In . SVG Version: 6.00 Build 0)  -->
<svg version="1.1" id="Layer_1" xmlns="http://www.w3.org/2000/svg" xmlns:xlink="http://www.w3.org/1999/xlink" x="0px" y="0px"
	 viewBox="0 0 104.5 110.8" style="enable-background:new 0 0 104.5 110.8;" xml:space="preserve">
<style type="text/css">
	.st0{fill:#154734;}
	.st1{fill:#FFFFFF;}
</style>
<g>
	<path class="st0" d="M104.5,42.4V0H0v42.4c0,14.1,7,28.7,20.8,43.4c13.3,14.1,27.7,22.8,30.4,24.4l1,0.6l1-0.6
		c2.8-1.6,17.2-10.2,30.4-24.4C97.5,71.2,104.5,56.6,104.5,42.4z"/>
	<polygon class="st1" points="60.6,17.4 60.6,28.9 64.5,28.9 52.4,64 40.3,28.9 44.2,28.9 44.2,17.4 23.3,17.4 23.3,28.9 28.9,28.9 
		42.4,68.1 38.5,68.1 38.5,79.6 66.3,79.6 66.3,68.1 62.4,68.1 75.9,28.9 81.5,28.9 81.5,17.4 	"/>
</g>
</svg>
